<svg width="34" height="31" viewBox="0 0 34 31" fill="none" xmlns="http://www.w3.org/2000/svg">
<path d="M24.3333 0.5C24.8006 0.50053 25.2501 0.683523 25.5898 1.01159C25.9296 1.33966 26.1341 1.78804 26.1615 2.26512C26.1889 2.74219 26.0371 3.21196 25.7372 3.57844C25.4373 3.94491 25.0118 4.18043 24.5478 4.23687L24.3333 4.25H5.08333C4.85427 4.24957 4.63334 4.33687 4.46406 4.4947C4.29479 4.65254 4.18943 4.86947 4.16873 5.10279C4.14803 5.33611 4.2135 5.56889 4.35224 5.75531C4.49097 5.94173 4.69293 6.06826 4.91833 6.11L5.08333 6.125H29.8333C30.7584 6.1247 31.6494 6.48201 32.3277 7.12531C33.006 7.7686 33.4215 8.65033 33.4908 9.59375L33.5 9.875V26.75C33.5003 27.6961 33.1509 28.6073 32.5219 29.301C31.8929 29.9947 31.0308 30.4197 30.1083 30.4906L29.8333 30.5H4.16667C3.24161 30.5003 2.35063 30.143 1.67233 29.4997C0.994029 28.8564 0.578546 27.9747 0.509167 27.0312L0.5 26.75V5.1875C0.499821 3.9974 0.94226 2.85179 1.73757 1.98304C2.53289 1.11429 3.62152 0.587446 4.78267 0.509375L5.08333 0.5H24.3333ZM4.16667 9.78125V26.75H29.8333V9.875H5.08333C4.87433 9.875 4.66717 9.86 4.4655 9.83375L4.16667 9.78125ZM23.4167 15.5C24.146 15.5 24.8455 15.7963 25.3612 16.3238C25.8769 16.8512 26.1667 17.5666 26.1667 18.3125C26.1667 19.0584 25.8769 19.7738 25.3612 20.3012C24.8455 20.8287 24.146 21.125 23.4167 21.125C22.6873 21.125 21.9878 20.8287 21.4721 20.3012C20.9564 19.7738 20.6667 19.0584 20.6667 18.3125C20.6667 17.5666 20.9564 16.8512 21.4721 16.3238C21.9878 15.7963 22.6873 15.5 23.4167 15.5Z" fill="#6F6AF8"/>
</svg>
