<svg width="12" height="22" viewBox="0 0 12 22" fill="none" xmlns="http://www.w3.org/2000/svg">
<path d="M1.1499 20.8585C0.899902 20.5877 0.774902 20.267 0.774902 19.8965C0.774902 19.526 0.899902 19.2057 1.1499 18.9356L8.4749 11.0002L1.1249 3.03766C0.891569 2.78489 0.774902 2.46891 0.774902 2.08975C0.774902 1.71058 0.899902 1.38558 1.1499 1.11475C1.3999 0.843913 1.6959 0.708496 2.0379 0.708496C2.3799 0.708496 2.67557 0.843913 2.9249 1.11475L11.3249 10.2418C11.4249 10.3502 11.4959 10.4675 11.5379 10.5939C11.5799 10.7203 11.6006 10.8557 11.5999 11.0002C11.5999 11.1446 11.5789 11.28 11.5369 11.4064C11.4949 11.5328 11.4242 11.6502 11.3249 11.7585L2.8999 20.8856C2.66657 21.1384 2.3789 21.2647 2.0369 21.2647C1.6949 21.2647 1.39924 21.1293 1.1499 20.8585Z" fill="#9747FF"/>
</svg>
