<svg width="44" height="40" viewBox="0 0 44 40" fill="none" xmlns="http://www.w3.org/2000/svg">
<path d="M22.0001 20.0002C20.8628 20.0002 19.7511 20.3374 18.8056 20.9692C17.86 21.601 17.123 22.4991 16.6878 23.5497C16.2526 24.6004 16.1387 25.7565 16.3606 26.8719C16.5824 27.9873 17.1301 29.0119 17.9342 29.816C18.7384 30.6202 19.7629 31.1678 20.8783 31.3897C21.9937 31.6115 23.1498 31.4977 24.2005 31.0625C25.2512 30.6273 26.1492 29.8903 26.781 28.9447C27.4129 27.9991 27.7501 26.8874 27.7501 25.7502C27.7501 24.2252 27.1443 22.7626 26.0659 21.6843C24.9876 20.606 23.5251 20.0002 22.0001 20.0002ZM22.0001 27.6668C21.621 27.6668 21.2504 27.5544 20.9352 27.3438C20.62 27.1332 20.3744 26.8339 20.2293 26.4836C20.0842 26.1334 20.0463 25.748 20.1202 25.3762C20.1942 25.0044 20.3767 24.6629 20.6448 24.3949C20.9128 24.1268 21.2544 23.9443 21.6262 23.8703C21.998 23.7964 22.3833 23.8343 22.7336 23.9794C23.0838 24.1245 23.3831 24.3701 23.5937 24.6853C23.8043 25.0005 23.9167 25.3711 23.9167 25.7502C23.9167 26.2585 23.7148 26.746 23.3554 27.1054C22.9959 27.4649 22.5084 27.6668 22.0001 27.6668ZM20.6392 15.611C20.8215 15.7855 21.0365 15.9223 21.2717 16.0135C21.5012 16.1149 21.7492 16.1673 22.0001 16.1673C22.2509 16.1673 22.499 16.1149 22.7284 16.0135C22.9637 15.9223 23.1786 15.7855 23.3609 15.611L27.7501 11.2985C28.1212 10.9274 28.3296 10.4241 28.3296 9.89933C28.3296 9.37454 28.1212 8.87124 27.7501 8.50016C27.379 8.12908 26.8757 7.92061 26.3509 7.92061C25.8261 7.92061 25.3228 8.12908 24.9517 8.50016L23.9167 9.631V2.75016C23.9167 2.24183 23.7148 1.75432 23.3554 1.39487C22.9959 1.03543 22.5084 0.833496 22.0001 0.833496C21.4918 0.833496 21.0042 1.03543 20.6448 1.39487C20.2853 1.75432 20.0834 2.24183 20.0834 2.75016V9.631L19.0484 8.50016C18.6773 8.12908 18.174 7.92061 17.6492 7.92061C17.1245 7.92061 16.6212 8.12908 16.2501 8.50016C15.879 8.87124 15.6705 9.37454 15.6705 9.89933C15.6705 10.4241 15.879 10.9274 16.2501 11.2985L20.6392 15.611ZM35.4167 25.7502C35.4167 25.3711 35.3043 25.0005 35.0937 24.6853C34.8831 24.3701 34.5838 24.1245 34.2336 23.9794C33.8833 23.8343 33.498 23.7964 33.1262 23.8703C32.7544 23.9443 32.4128 24.1268 32.1448 24.3949C31.8767 24.6629 31.6942 25.0044 31.6202 25.3762C31.5463 25.748 31.5842 26.1334 31.7293 26.4836C31.8744 26.8339 32.12 27.1332 32.4352 27.3438C32.7504 27.5544 33.121 27.6668 33.5001 27.6668C34.0084 27.6668 34.4959 27.4649 34.8554 27.1054C35.2148 26.746 35.4167 26.2585 35.4167 25.7502ZM37.3334 12.3335H31.5834C31.0751 12.3335 30.5876 12.5354 30.2281 12.8949C29.8687 13.2543 29.6667 13.7418 29.6667 14.2502C29.6667 14.7585 29.8687 15.246 30.2281 15.6054C30.5876 15.9649 31.0751 16.1668 31.5834 16.1668H37.3334C37.8417 16.1668 38.3293 16.3688 38.6887 16.7282C39.0481 17.0877 39.2501 17.5752 39.2501 18.0835V33.4168C39.2501 33.9252 39.0481 34.4127 38.6887 34.7721C38.3293 35.1316 37.8417 35.3335 37.3334 35.3335H6.66675C6.15842 35.3335 5.6709 35.1316 5.31146 34.7721C4.95202 34.4127 4.75008 33.9252 4.75008 33.4168V18.0835C4.75008 17.5752 4.95202 17.0877 5.31146 16.7282C5.6709 16.3688 6.15842 16.1668 6.66675 16.1668H12.4167C12.9251 16.1668 13.4126 15.9649 13.772 15.6054C14.1315 15.246 14.3334 14.7585 14.3334 14.2502C14.3334 13.7418 14.1315 13.2543 13.772 12.8949C13.4126 12.5354 12.9251 12.3335 12.4167 12.3335H6.66675C5.14175 12.3335 3.67922 12.9393 2.60088 14.0176C1.52255 15.096 0.916748 16.5585 0.916748 18.0835V33.4168C0.916748 34.9418 1.52255 36.4044 2.60088 37.4827C3.67922 38.561 5.14175 39.1668 6.66675 39.1668H37.3334C38.8584 39.1668 40.3209 38.561 41.3993 37.4827C42.4776 36.4044 43.0834 34.9418 43.0834 33.4168V18.0835C43.0834 16.5585 42.4776 15.096 41.3993 14.0176C40.3209 12.9393 38.8584 12.3335 37.3334 12.3335ZM8.58342 25.7502C8.58342 26.1292 8.69583 26.4998 8.90643 26.815C9.11704 27.1302 9.41638 27.3759 9.76661 27.5209C10.1168 27.666 10.5022 27.704 10.874 27.63C11.2458 27.556 11.5873 27.3735 11.8554 27.1054C12.1234 26.8374 12.306 26.4959 12.3799 26.1241C12.4539 25.7523 12.4159 25.3669 12.2709 25.0167C12.1258 24.6665 11.8801 24.3671 11.5649 24.1565C11.2497 23.9459 10.8792 23.8335 10.5001 23.8335C9.99175 23.8335 9.50424 24.0354 9.14479 24.3949C8.78535 24.7543 8.58342 25.2418 8.58342 25.7502Z" fill="#6F6AF8"/>
</svg>
