<svg width="18" height="18" viewBox="0 0 18 18" fill="none" xmlns="http://www.w3.org/2000/svg">
<path d="M6.33333 17H11.6667M6.33333 17V12.5556M6.33333 17H1.53333C1.39188 17 1.25623 16.9438 1.15621 16.8438C1.05619 16.7438 1 16.6081 1 16.4667V13.0889C1 12.9474 1.05619 12.8118 1.15621 12.7118C1.25623 12.6117 1.39188 12.5556 1.53333 12.5556H6.33333M11.6667 17V6.33333M11.6667 17H16.4667C16.6081 17 16.7438 16.9438 16.8438 16.8438C16.9438 16.7438 17 16.6081 17 16.4667V1.53333C17 1.39188 16.9438 1.25623 16.8438 1.15621C16.7438 1.05619 16.6081 1 16.4667 1H12.2C12.0586 1 11.9229 1.05619 11.8229 1.15621C11.7229 1.25623 11.6667 1.39188 11.6667 1.53333V6.33333M6.33333 12.5556V6.86667C6.33333 6.72522 6.38952 6.58956 6.48954 6.48954C6.58956 6.38952 6.72522 6.33333 6.86667 6.33333H11.6667" stroke="#1E1B59"/>
</svg>
