<svg width="155" height="50" viewBox="0 0 155 50" fill="none" xmlns="http://www.w3.org/2000/svg">
<path d="M100.711 14.9771C100.367 14.8775 100.006 15.075 99.9214 15.4225C99.1547 18.5551 99.3895 21.8554 100.602 24.8556C101.895 28.0564 104.226 30.73 107.22 32.4476C110.215 34.1651 113.7 34.827 117.115 34.3271C120.531 33.8272 123.68 32.1945 126.057 29.6909C128.434 27.1873 129.901 23.9579 130.223 20.5207C130.544 17.0836 129.702 13.638 127.832 10.7366C125.961 7.83529 123.17 5.64638 119.906 4.52106C116.847 3.46625 113.539 3.40323 110.451 4.33154C110.108 4.43452 109.93 4.80498 110.047 5.14297C110.164 5.48095 110.533 5.65833 110.876 5.55667C113.69 4.72277 116.699 4.78568 119.484 5.74584C122.473 6.77652 125.03 8.78134 126.743 11.4387C128.456 14.096 129.227 17.2519 128.933 20.3999C128.638 23.548 127.294 26.5058 125.117 28.7989C122.94 31.092 120.056 32.5874 116.928 33.0452C113.799 33.5031 110.608 32.8968 107.865 31.3237C105.122 29.7506 102.987 27.3019 101.803 24.3703C100.699 21.6393 100.48 18.6368 101.167 15.7835C101.251 15.4357 101.054 15.0766 100.711 14.9771Z" fill="#1E1B59"/>
<path d="M104.977 21.165C104.621 21.2398 104.391 21.5899 104.487 21.9407C105.067 24.0486 106.275 25.9362 107.958 27.3471C109.81 28.8995 112.13 29.7848 114.545 29.8611C116.96 29.9373 119.331 29.2001 121.277 27.7677C123.224 26.3352 124.632 24.2906 125.277 21.9618C125.922 19.633 125.767 17.155 124.835 14.9253C123.903 12.6956 122.25 10.8435 120.139 9.66611C118.029 8.4887 115.584 8.05423 113.198 8.43239C111.028 8.77611 109.021 9.77302 107.44 11.2824C107.177 11.5336 107.194 11.9521 107.461 12.1994C107.727 12.4468 108.143 12.4292 108.408 12.1802C109.787 10.8862 111.526 10.0313 113.404 9.73381C115.499 9.40185 117.645 9.78323 119.497 10.8168C121.35 11.8503 122.801 13.4761 123.619 15.4333C124.437 17.3905 124.574 19.5658 124.007 21.61C123.441 23.6543 122.205 25.449 120.496 26.7065C118.788 27.9639 116.707 28.611 114.586 28.5441C112.466 28.4771 110.43 27.7 108.804 26.3373C107.348 25.1161 106.296 23.4881 105.78 21.6691C105.68 21.3191 105.333 21.0902 104.977 21.165Z" fill="#6F6AF8"/>
<path d="M111.094 21.9769C110.83 22.1861 110.782 22.5731 111.02 22.8123C111.722 23.5186 112.61 24.0196 113.586 24.2539C114.76 24.5359 115.996 24.4152 117.094 23.911C118.192 23.4067 119.089 22.5483 119.641 21.4734C120.193 20.3985 120.367 19.1694 120.137 17.9833C119.907 16.7972 119.285 15.7229 118.371 14.9326C117.457 14.1423 116.304 13.6819 115.097 13.6253C113.89 13.5687 112.699 13.9191 111.715 14.6203C110.897 15.2029 110.262 15.9995 109.876 16.9172C109.745 17.228 109.933 17.5693 110.257 17.6643C110.58 17.7593 110.916 17.5713 111.057 17.265C111.36 16.6085 111.829 16.0386 112.424 15.615C113.185 15.0726 114.106 14.8016 115.04 14.8454C115.973 14.8892 116.865 15.2453 117.572 15.8565C118.279 16.4678 118.76 17.2988 118.938 18.2162C119.116 19.1336 118.981 20.0842 118.554 20.9156C118.127 21.747 117.434 22.411 116.584 22.8009C115.735 23.1909 114.779 23.2843 113.871 23.0662C113.161 22.8958 112.512 22.5432 111.986 22.0477C111.74 21.8165 111.359 21.7676 111.094 21.9769Z" fill="#FFD600"/>
<path d="M2.54199 4.062H20.4046V7.61162H6.41221V17.4131H20.1298V20.8712H6.41221V30.7414H20.4046V34.291H2.54199V4.062ZM34.7584 34.8406C33.0332 34.8406 31.4835 34.4284 30.1095 33.604C28.7507 32.7796 27.6744 31.6269 26.8805 30.146C26.1019 28.6498 25.7126 26.9017 25.7126 24.9017C25.7126 22.9017 26.1019 21.1612 26.8805 19.6803C27.6744 18.1841 28.7507 17.0238 30.1095 16.1994C31.4835 15.3597 33.0332 14.9399 34.7584 14.9399C36.1477 14.9399 37.369 15.1841 38.4225 15.6727C39.4759 16.146 40.3156 16.7032 40.9416 17.3444C41.5675 17.9857 41.9263 18.5429 42.0179 19.0162V2.77956H46.0255V34.291H42.0866V30.6269C41.9187 31.146 41.4988 31.7338 40.8271 32.3903C40.1706 33.0467 39.3232 33.6193 38.2851 34.1078C37.2469 34.5964 36.0713 34.8406 34.7584 34.8406ZM35.6744 31.5429C36.8347 31.5429 37.8958 31.2681 38.8576 30.7185C39.8194 30.1689 40.5828 29.3979 41.1477 28.4055C41.7278 27.3979 42.0179 26.2299 42.0179 24.9017C42.0179 23.5735 41.7278 22.4132 41.1477 21.4208C40.5828 20.4132 39.8194 19.6345 38.8576 19.0849C37.8958 18.52 36.8347 18.2376 35.6744 18.2376C34.6057 18.2376 33.6133 18.5124 32.6973 19.062C31.7813 19.6116 31.0408 20.3826 30.4759 21.375C29.9263 22.3673 29.6515 23.5429 29.6515 24.9017C29.6515 26.2605 29.9263 27.4361 30.4759 28.4284C31.0408 29.4208 31.7813 30.1918 32.6973 30.7414C33.6133 31.2757 34.6057 31.5429 35.6744 31.5429ZM48.6094 15.4895H52.8918L59.0292 30.604L65.1666 15.4895H69.4262L61.388 34.291H56.6934L48.6094 15.4895ZM73.5995 34.291V15.4895H77.5842V34.291H73.5995ZM75.6377 9.05437C74.9201 9.05437 74.3018 8.80246 73.7827 8.29864C73.2789 7.77956 73.027 7.16124 73.027 6.44368C73.027 5.72613 73.2789 5.10781 73.7827 4.58872C74.3018 4.06964 74.9201 3.81009 75.6377 3.81009C76.1109 3.81009 76.546 3.93223 76.943 4.17651C77.3552 4.42078 77.6835 4.74139 77.9277 5.13834C78.172 5.52002 78.2941 5.95513 78.2941 6.44368C78.2941 7.16124 78.0346 7.77956 77.5155 8.29864C76.9964 8.80246 76.3705 9.05437 75.6377 9.05437ZM87.5915 34.291H83.6297V15.4895H87.5915V18.7414H87.477C87.5533 18.3444 87.8358 17.8483 88.3243 17.2528C88.8129 16.6574 89.4846 16.1231 90.3396 15.6498C91.1945 15.1765 92.2174 14.9399 93.4083 14.9399C94.2785 14.9399 95.0419 15.062 95.6984 15.3063C96.3701 15.5353 96.8434 15.7643 97.1182 15.9933L95.4923 19.291C95.2785 19.0773 94.9045 18.8635 94.3701 18.6498C93.8358 18.4208 93.1716 18.3063 92.3778 18.3063C91.3701 18.3063 90.5075 18.6193 89.79 19.2452C89.0724 19.8712 88.5228 20.6269 88.1411 21.5124C87.7747 22.3826 87.5915 23.1918 87.5915 23.9399V34.291ZM144.417 14.9399C145.653 14.9399 146.852 15.1994 148.012 15.7185C149.188 16.2376 150.149 17.062 150.897 18.1918C151.661 19.3063 152.042 20.7643 152.042 22.5658V34.291H148.012V23.3444C148.012 21.4819 147.577 20.1307 146.707 19.291C145.836 18.4361 144.714 18.0086 143.34 18.0086C142.439 18.0086 141.569 18.2681 140.729 18.7872C139.905 19.291 139.226 19.9933 138.691 20.8941C138.157 21.7796 137.89 22.7872 137.89 23.917V34.291H133.905V15.4895H137.89V18.833C138.027 18.3139 138.401 17.749 139.012 17.1383C139.623 16.5277 140.401 16.0086 141.348 15.5811C142.294 15.1536 143.317 14.9399 144.417 14.9399Z" fill="#1E1B59"/>
<path d="M27.4106 38.4733C27.8457 38.4733 28.2197 38.5229 28.5327 38.6222C28.8495 38.7214 29.0976 38.8264 29.277 38.9371C29.4602 39.0477 29.569 39.1203 29.6033 39.1546L29.0995 39.9619C29.0422 39.9122 28.9411 39.8416 28.7961 39.75C28.651 39.6546 28.4697 39.5706 28.2522 39.4981C28.0346 39.4218 27.7865 39.3836 27.5079 39.3836C27.0766 39.3836 26.735 39.4714 26.4831 39.647C26.235 39.8187 26.1109 40.063 26.1109 40.3798C26.1109 40.5935 26.1758 40.7825 26.3056 40.9466C26.4392 41.1069 26.6262 41.2538 26.8667 41.3874C27.1071 41.521 27.3877 41.6584 27.7083 41.7996C27.9716 41.9103 28.2293 42.0363 28.4812 42.1775C28.7369 42.3187 28.9678 42.4848 29.1739 42.6756C29.3838 42.8664 29.5499 43.0878 29.672 43.3397C29.798 43.5916 29.8609 43.8817 29.8609 44.21C29.8609 44.5344 29.7941 44.8264 29.6606 45.0859C29.5308 45.3454 29.3457 45.5668 29.1052 45.75C28.8686 45.9294 28.5919 46.0668 28.2751 46.1622C27.9583 46.2577 27.6167 46.3054 27.2503 46.3054C26.7884 46.3054 26.3705 46.2481 25.9964 46.1336C25.6262 46.0191 25.3266 45.8989 25.0976 45.7729C24.8724 45.647 24.7426 45.5687 24.7083 45.5382L25.2407 44.6966C25.2865 44.7348 25.3705 44.792 25.4926 44.8684C25.6148 44.9409 25.7655 45.0172 25.9449 45.0974C26.1243 45.1775 26.3266 45.2462 26.5518 45.3035C26.777 45.3569 27.0174 45.3836 27.2732 45.3836C27.7846 45.3836 28.172 45.2691 28.4354 45.0401C28.6987 44.8111 28.8304 44.5172 28.8304 44.1584C28.8304 43.8836 28.7464 43.647 28.5785 43.4485C28.4106 43.25 28.1873 43.0725 27.9087 42.9161C27.63 42.7596 27.3228 42.6088 26.9869 42.4638C26.6434 42.3073 26.3285 42.1355 26.0422 41.9485C25.756 41.7615 25.5251 41.5382 25.3495 41.2787C25.1777 41.0153 25.0919 40.6985 25.0919 40.3283C25.0919 39.9619 25.1949 39.6393 25.401 39.3607C25.6109 39.0821 25.8915 38.8645 26.2426 38.708C26.5976 38.5516 26.9869 38.4733 27.4106 38.4733ZM34.7768 45.3378C35.2463 45.3378 35.6528 45.2729 35.9963 45.1432C36.3436 45.0134 36.5898 44.8874 36.7348 44.7653L37.1642 45.6069C36.9925 45.7596 36.6929 45.9142 36.2654 46.0706C35.8417 46.2271 35.3322 46.3054 34.7367 46.3054C34.1795 46.3054 33.6623 46.2061 33.1852 46.0077C32.7081 45.8092 32.2902 45.5325 31.9314 45.1775C31.5764 44.8225 31.2978 44.4084 31.0955 43.9351C30.8971 43.4619 30.7978 42.9504 30.7978 42.4008C30.7978 41.8512 30.8971 41.3378 31.0955 40.8607C31.294 40.3836 31.5707 39.9676 31.9257 39.6126C32.2845 39.2538 32.7024 38.9752 33.1795 38.7767C33.6604 38.5745 34.1795 38.4733 34.7367 38.4733C35.3322 38.4733 35.8417 38.5516 36.2654 38.708C36.6929 38.8645 36.9925 39.0191 37.1642 39.1718L36.7348 40.0134C36.5898 39.8874 36.3436 39.7615 35.9963 39.6355C35.6528 39.5058 35.2463 39.4409 34.7768 39.4409C34.3493 39.4409 33.9581 39.5134 33.6032 39.6584C33.2482 39.8035 32.939 40.0096 32.6757 40.2767C32.4161 40.5401 32.2138 40.8512 32.0688 41.21C31.9276 41.5687 31.857 41.96 31.857 42.3836C31.857 42.8111 31.9276 43.2061 32.0688 43.5687C32.2138 43.9275 32.4161 44.2405 32.6757 44.5077C32.939 44.771 33.2482 44.9752 33.6032 45.1203C33.9581 45.2653 34.3493 45.3378 34.7768 45.3378ZM42.9391 42.8187H39.315V46.168H38.3475V38.6107H39.315V41.9371H42.9391V38.6107H43.9066V46.168H42.9391V42.8187ZM46.0835 42.3836C46.0835 42.9447 46.2 43.4504 46.4328 43.9008C46.6694 44.3512 46.9938 44.71 47.4061 44.9771C47.8183 45.2405 48.2916 45.3722 48.8259 45.3722C49.3641 45.3722 49.8374 45.2405 50.2458 44.9771C50.658 44.71 50.9805 44.3512 51.2133 43.9008C51.4461 43.4504 51.5625 42.9447 51.5625 42.3836C51.5625 41.8225 51.4461 41.3187 51.2133 40.8722C50.9805 40.4218 50.658 40.0649 50.2458 39.8016C49.8374 39.5382 49.3641 39.4065 48.8259 39.4065C48.2916 39.4065 47.8183 39.5382 47.4061 39.8016C46.9938 40.0649 46.6694 40.4218 46.4328 40.8722C46.2 41.3187 46.0835 41.8225 46.0835 42.3836ZM45.0702 42.3836C45.0702 41.834 45.1637 41.3225 45.3507 40.8493C45.5416 40.3722 45.8068 39.9561 46.1465 39.6012C46.4862 39.2462 46.8832 38.9695 47.3374 38.771C47.7954 38.5725 48.2916 38.4733 48.8259 38.4733C49.3641 38.4733 49.8603 38.5725 50.3145 38.771C50.7725 38.9695 51.1694 39.2462 51.5053 39.6012C51.845 39.9561 52.1084 40.3722 52.2954 40.8493C52.4824 41.3225 52.5759 41.834 52.5759 42.3836C52.5759 42.9371 52.4824 43.4523 52.2954 43.9294C52.1122 44.4027 51.8507 44.8187 51.511 45.1775C51.1751 45.5325 50.7801 45.8092 50.3259 46.0077C49.8717 46.2061 49.3717 46.3054 48.8259 46.3054C48.2801 46.3054 47.7763 46.2061 47.3145 46.0077C46.8564 45.8092 46.4595 45.5325 46.1236 45.1775C45.7877 44.8187 45.5282 44.4027 45.345 43.9294C45.1618 43.4523 45.0702 42.9371 45.0702 42.3836ZM54.3582 42.3836C54.3582 42.9447 54.4746 43.4504 54.7075 43.9008C54.9441 44.3512 55.2685 44.71 55.6808 44.9771C56.093 45.2405 56.5662 45.3722 57.1006 45.3722C57.6388 45.3722 58.112 45.2405 58.5204 44.9771C58.9327 44.71 59.2552 44.3512 59.488 43.9008C59.7208 43.4504 59.8372 42.9447 59.8372 42.3836C59.8372 41.8225 59.7208 41.3187 59.488 40.8722C59.2552 40.4218 58.9327 40.0649 58.5204 39.8016C58.112 39.5382 57.6388 39.4065 57.1006 39.4065C56.5662 39.4065 56.093 39.5382 55.6808 39.8016C55.2685 40.0649 54.9441 40.4218 54.7075 40.8722C54.4746 41.3187 54.3582 41.8225 54.3582 42.3836ZM53.3449 42.3836C53.3449 41.834 53.4384 41.3225 53.6254 40.8493C53.8162 40.3722 54.0815 39.9561 54.4212 39.6012C54.7609 39.2462 55.1578 38.9695 55.612 38.771C56.0701 38.5725 56.5662 38.4733 57.1006 38.4733C57.6388 38.4733 58.1349 38.5725 58.5891 38.771C59.0472 38.9695 59.4441 39.2462 59.78 39.6012C60.1197 39.9561 60.383 40.3722 60.5701 40.8493C60.7571 41.3225 60.8506 41.834 60.8506 42.3836C60.8506 42.9371 60.7571 43.4523 60.5701 43.9294C60.3869 44.4027 60.1254 44.8187 59.7857 45.1775C59.4498 45.5325 59.0548 45.8092 58.6006 46.0077C58.1464 46.2061 57.6464 46.3054 57.1006 46.3054C56.5548 46.3054 56.051 46.2061 55.5891 46.0077C55.1311 45.8092 54.7342 45.5325 54.3983 45.1775C54.0624 44.8187 53.8029 44.4027 53.6197 43.9294C53.4365 43.4523 53.3449 42.9371 53.3449 42.3836ZM61.9917 38.6107H62.9707V45.2806H65.9421V46.168H61.9917V38.6107ZM69.5891 38.4733C70.0242 38.4733 70.3983 38.5229 70.7113 38.6222C71.028 38.7214 71.2761 38.8264 71.4555 38.9371C71.6387 39.0477 71.7475 39.1203 71.7819 39.1546L71.278 39.9619C71.2208 39.9122 71.1197 39.8416 70.9746 39.75C70.8296 39.6546 70.6483 39.5706 70.4307 39.4981C70.2132 39.4218 69.9651 39.3836 69.6864 39.3836C69.2551 39.3836 68.9135 39.4714 68.6616 39.647C68.4135 39.8187 68.2895 40.063 68.2895 40.3798C68.2895 40.5935 68.3544 40.7825 68.4842 40.9466C68.6177 41.1069 68.8048 41.2538 69.0452 41.3874C69.2857 41.521 69.5662 41.6584 69.8868 41.7996C70.1502 41.9103 70.4078 42.0363 70.6597 42.1775C70.9155 42.3187 71.1464 42.4848 71.3525 42.6756C71.5624 42.8664 71.7284 43.0878 71.8506 43.3397C71.9765 43.5916 72.0395 43.8817 72.0395 44.21C72.0395 44.5344 71.9727 44.8264 71.8391 45.0859C71.7093 45.3454 71.5242 45.5668 71.2838 45.75C71.0471 45.9294 70.7704 46.0668 70.4536 46.1622C70.1368 46.2577 69.7952 46.3054 69.4288 46.3054C68.967 46.3054 68.549 46.2481 68.175 46.1336C67.8048 46.0191 67.5051 45.8989 67.2761 45.7729C67.0509 45.647 66.9212 45.5687 66.8868 45.5382L67.4193 44.6966C67.4651 44.7348 67.549 44.792 67.6712 44.8684C67.7933 44.9409 67.9441 45.0172 68.1235 45.0974C68.3029 45.1775 68.5051 45.2462 68.7303 45.3035C68.9555 45.3569 69.196 45.3836 69.4517 45.3836C69.9632 45.3836 70.3506 45.2691 70.6139 45.0401C70.8773 44.8111 71.009 44.5172 71.009 44.1584C71.009 43.8836 70.925 43.647 70.7571 43.4485C70.5891 43.25 70.3658 43.0725 70.0872 42.9161C69.8086 42.7596 69.5013 42.6088 69.1655 42.4638C68.8219 42.3073 68.5071 42.1355 68.2208 41.9485C67.9345 41.7615 67.7036 41.5382 67.528 41.2787C67.3563 41.0153 67.2704 40.6985 67.2704 40.3283C67.2704 39.9619 67.3735 39.6393 67.5796 39.3607C67.7895 39.0821 68.07 38.8645 68.4212 38.708C68.7761 38.5516 69.1655 38.4733 69.5891 38.4733ZM78.49 38.4733C78.9251 38.4733 79.2992 38.5229 79.6121 38.6222C79.9289 38.7214 80.177 38.8264 80.3564 38.9371C80.5396 39.0477 80.6484 39.1203 80.6827 39.1546L80.1789 39.9619C80.1217 39.9122 80.0205 39.8416 79.8755 39.75C79.7305 39.6546 79.5492 39.5706 79.3316 39.4981C79.114 39.4218 78.866 39.3836 78.5873 39.3836C78.156 39.3836 77.8144 39.4714 77.5625 39.647C77.3144 39.8187 77.1904 40.063 77.1904 40.3798C77.1904 40.5935 77.2553 40.7825 77.385 40.9466C77.5186 41.1069 77.7056 41.2538 77.9461 41.3874C78.1866 41.521 78.4671 41.6584 78.7877 41.7996C79.0511 41.9103 79.3087 42.0363 79.5606 42.1775C79.8163 42.3187 80.0473 42.4848 80.2534 42.6756C80.4633 42.8664 80.6293 43.0878 80.7515 43.3397C80.8774 43.5916 80.9404 43.8817 80.9404 44.21C80.9404 44.5344 80.8736 44.8264 80.74 45.0859C80.6102 45.3454 80.4251 45.5668 80.1847 45.75C79.948 45.9294 79.6713 46.0668 79.3545 46.1622C79.0377 46.2577 78.6961 46.3054 78.3297 46.3054C77.8679 46.3054 77.4499 46.2481 77.0759 46.1336C76.7056 46.0191 76.406 45.8989 76.177 45.7729C75.9518 45.647 75.8221 45.5687 75.7877 45.5382L76.3202 44.6966C76.366 44.7348 76.4499 44.792 76.5721 44.8684C76.6942 44.9409 76.845 45.0172 77.0244 45.0974C77.2037 45.1775 77.406 45.2462 77.6312 45.3035C77.8564 45.3569 78.0969 45.3836 78.3526 45.3836C78.864 45.3836 79.2515 45.2691 79.5148 45.0401C79.7782 44.8111 79.9098 44.5172 79.9098 44.1584C79.9098 43.8836 79.8259 43.647 79.6579 43.4485C79.49 43.25 79.2667 43.0725 78.9881 42.9161C78.7095 42.7596 78.4022 42.6088 78.0663 42.4638C77.7228 42.3073 77.4079 42.1355 77.1217 41.9485C76.8354 41.7615 76.6045 41.5382 76.4289 41.2787C76.2572 41.0153 76.1713 40.6985 76.1713 40.3283C76.1713 39.9619 76.2744 39.6393 76.4805 39.3607C76.6904 39.0821 76.9709 38.8645 77.3221 38.708C77.677 38.5516 78.0663 38.4733 78.49 38.4733ZM82.2723 38.6107H83.257V46.168H82.2723V38.6107ZM91.7005 38.6107V46.168H90.7272V40.7119L90.7788 39.876L90.5727 40.7977L88.7521 45.7386H87.7845L85.9639 40.7977L85.7635 39.876L85.8093 40.7119V46.168H84.8303V38.6107H86.1356L88.1967 44.542L88.2654 44.9256L88.3398 44.542L90.4066 38.6107H91.7005ZM93.3586 38.6107H95.4998C95.9731 38.6107 96.3987 38.689 96.7765 38.8454C97.1582 38.9981 97.4616 39.2386 97.6868 39.5668C97.912 39.8951 98.0246 40.3225 98.0246 40.8493C98.0246 41.3722 97.912 41.8054 97.6868 42.1489C97.4616 42.4924 97.1582 42.75 96.7765 42.9218C96.3987 43.0897 95.9731 43.1737 95.4998 43.1737H94.3376V46.168H93.3586V38.6107ZM94.3376 42.355H95.2307C95.5552 42.355 95.8491 42.3073 96.1124 42.2119C96.3796 42.1164 96.5914 41.96 96.7479 41.7424C96.9082 41.5248 96.9884 41.2329 96.9884 40.8664C96.9884 40.4962 96.9082 40.208 96.7479 40.0019C96.5914 39.792 96.3796 39.6451 96.1124 39.5611C95.8491 39.4733 95.5552 39.4294 95.2307 39.4294H94.3376V42.355ZM99.239 38.6107H100.218V45.2806H103.189V46.168H99.239V38.6107ZM104.569 38.6107H105.554V46.168H104.569V38.6107ZM107.156 38.6107H111.095V39.4981H108.129V41.9371H110.894V42.8187H108.129V46.168H107.156V38.6107ZM112.453 38.6107H113.437V46.168H112.453V38.6107ZM115.045 38.6107H119.511V39.4981H116.012V41.9485H119.442V42.813H116.012V45.2806H119.511V46.168H115.045V38.6107ZM121.032 38.6107H122.813C123.618 38.6107 124.28 38.7729 124.799 39.0974C125.322 39.418 125.71 39.8626 125.962 40.4313C126.213 41 126.339 41.6508 126.339 42.3836C126.339 43.1203 126.213 43.7729 125.962 44.3416C125.71 44.9103 125.324 45.3569 124.805 45.6813C124.286 46.0058 123.622 46.168 122.813 46.168H121.032V38.6107ZM122.005 39.5038V45.2748H122.733C123.328 45.2748 123.815 45.1508 124.193 44.9027C124.57 44.6546 124.849 44.3149 125.028 43.8836C125.212 43.4485 125.305 42.9523 125.309 42.3951C125.309 41.834 125.219 41.3378 125.04 40.9065C124.86 40.4714 124.58 40.1298 124.198 39.8817C123.817 39.6298 123.328 39.5038 122.733 39.5038H122.005Z" fill="#1E1B59"/>
</svg>
