<svg width="10" height="15" viewBox="0 0 10 15" fill="none" xmlns="http://www.w3.org/2000/svg">
<path d="M8.75 8.293V7H8V8.5C8.00002 8.6326 8.03954 8.75975 8.10987 8.8535L9.125 10.207V11H0.875V10.207L1.89012 8.8535C1.96046 8.75975 1.99998 8.6326 2 8.5V6.5C1.99896 5.7974 2.13699 5.10687 2.40016 4.49816C2.66333 3.88945 3.04231 3.38412 3.49884 3.0332C3.95536 2.68229 4.47325 2.49822 5.0002 2.49959C5.52716 2.50096 6.04451 2.68772 6.5 3.041V1.9235C6.14304 1.71276 5.76337 1.57844 5.375 1.5255V0.5H4.625V1.525C3.70046 1.65047 2.84366 2.22856 2.22026 3.14749C1.59687 4.06642 1.25116 5.26092 1.25 6.5V8.293L0.234875 9.6465C0.164544 9.74025 0.125021 9.8674 0.125 10V11.5C0.125 11.6326 0.164509 11.7598 0.234835 11.8536C0.305161 11.9473 0.400544 12 0.5 12H3.125V12.5C3.125 13.163 3.32254 13.7989 3.67417 14.2678C4.02581 14.7366 4.50272 15 5 15C5.49728 15 5.97419 14.7366 6.32583 14.2678C6.67746 13.7989 6.875 13.163 6.875 12.5V12H9.5C9.59946 12 9.69484 11.9473 9.76517 11.8536C9.83549 11.7598 9.875 11.6326 9.875 11.5V10C9.87498 9.8674 9.83546 9.74025 9.76513 9.6465L8.75 8.293ZM6.125 12.5C6.125 12.8978 6.00647 13.2794 5.7955 13.5607C5.58452 13.842 5.29837 14 5 14C4.70163 14 4.41548 13.842 4.2045 13.5607C3.99353 13.2794 3.875 12.8978 3.875 12.5V12H6.125V12.5Z" fill="#1E1B59"/>
</svg>
