<svg width="32" height="30" viewBox="0 0 32 30" fill="none" xmlns="http://www.w3.org/2000/svg">
<path d="M22.5455 18.6473L26.0945 20.6982L25.0036 22.5891L20.3636 19.9127V14.5455H22.5455V18.6473ZM32 18.9091C32 24.5382 27.4473 29.0909 21.8182 29.0909C16.1891 29.0909 11.6364 24.5382 11.6364 18.9091C11.6364 18.4145 11.68 17.9345 11.7527 17.4545H0V0H26.1818V9.71636C29.6145 11.36 32 14.8509 32 18.9091ZM12.6255 14.5455C12.8873 14.0218 13.1636 13.5273 13.4982 13.0473C13.3673 13.0909 13.2364 13.0909 13.0909 13.0909C10.6764 13.0909 8.72727 11.1418 8.72727 8.72727C8.72727 6.31273 10.6764 4.36364 13.0909 4.36364C15.5055 4.36364 17.4545 6.31273 17.4545 8.72727C17.4545 9.09091 17.3964 9.45455 17.3091 9.78909C18.6764 9.12 20.2036 8.72727 21.8182 8.72727C22.3127 8.72727 22.7927 8.77091 23.2727 8.84364V5.81818C22.5012 5.81818 21.7613 5.51169 21.2157 4.96613C20.6701 4.42057 20.3636 3.68063 20.3636 2.90909H5.81818C5.81818 4.52364 4.52364 5.81818 2.90909 5.81818V11.6364C3.68063 11.6364 4.42057 11.9429 4.96613 12.4884C5.51169 13.034 5.81818 13.7739 5.81818 14.5455H12.6255ZM29.0909 18.9091C29.0909 14.8945 25.8327 11.6364 21.8182 11.6364C17.8036 11.6364 14.5455 14.8945 14.5455 18.9091C14.5455 22.9236 17.8036 26.1818 21.8182 26.1818C25.8327 26.1818 29.0909 22.9236 29.0909 18.9091Z" fill="#6F6AF8"/>
</svg>
