<svg width="26" height="30" viewBox="0 0 26 30" fill="none" xmlns="http://www.w3.org/2000/svg">
<path d="M13.0002 14.0004C14.3847 14.0004 15.7382 13.5899 16.8893 12.8207C18.0405 12.0515 18.9377 10.9582 19.4676 9.67909C19.9974 8.39997 20.136 6.99246 19.8659 5.63455C19.5958 4.27664 18.9291 3.02932 17.9501 2.05032C16.9711 1.07132 15.7238 0.404615 14.3659 0.13451C13.008 -0.135595 11.6005 0.00303308 10.3214 0.532863C9.04223 1.06269 7.94894 1.95993 7.17975 3.11111C6.41056 4.26229 6 5.61571 6 7.00022C6 8.8568 6.73752 10.6373 8.05032 11.9501C9.36311 13.2629 11.1436 14.0004 13.0002 14.0004ZM13.0002 2.00007C13.9892 2.00007 14.9559 2.29332 15.7782 2.84274C16.6004 3.39217 17.2413 4.17309 17.6198 5.08674C17.9982 6.0004 18.0972 7.00577 17.9043 7.9757C17.7114 8.94564 17.2351 9.83658 16.5359 10.5359C15.8366 11.2352 14.9456 11.7114 13.9757 11.9043C13.0058 12.0972 12.0004 11.9982 11.0867 11.6198C10.1731 11.2413 9.39217 10.6004 8.84274 9.77816C8.29332 8.95589 8.00006 7.98916 8.00006 7.00022C8.00006 5.6741 8.52686 4.40229 9.46457 3.46458C10.4023 2.52687 11.6741 2.00007 13.0002 2.00007Z" fill="#6F6AF8"/>
<path d="M25.4708 21.3705C23.8671 19.6754 21.9345 18.3253 19.7912 17.4025C17.6479 16.4798 15.3389 16.0039 13.0054 16.0039C10.6719 16.0039 8.36296 16.4798 6.21966 17.4025C4.07636 18.3253 2.14376 19.6754 0.540019 21.3705C0.192321 21.7418 -0.000786937 22.2318 2.41038e-06 22.7405V28.0007C2.41038e-06 28.5311 0.210723 29.0398 0.585807 29.4149C0.960892 29.79 1.46962 30.0007 2.00007 30.0007H24.0008C24.5312 30.0007 25.0399 29.79 25.415 29.4149C25.7901 29.0398 26.0008 28.5311 26.0008 28.0007V22.7405C26.0043 22.2331 25.8149 21.7434 25.4708 21.3705ZM24.0008 28.0007H2.00007V22.7305C3.41734 21.2381 5.12345 20.0498 7.01458 19.2377C8.90571 18.4256 10.9423 18.0068 13.0004 18.0068C15.0585 18.0068 17.0951 18.4256 18.9862 19.2377C20.8774 20.0498 22.5835 21.2381 24.0008 22.7305V28.0007Z" fill="#6F6AF8"/>
</svg>
