<svg width="32" height="38" viewBox="0 0 32 38" fill="none" xmlns="http://www.w3.org/2000/svg">
<path d="M28.8 11.7324H3.2C1.424 11.7324 0.016 13.1564 0.016 14.9324L0 34.1324C0 35.9084 1.424 37.3324 3.2 37.3324H28.8C30.576 37.3324 32 35.9084 32 34.1324V14.9324C32 13.1564 30.576 11.7324 28.8 11.7324ZM27.2 34.1324H4.8C3.92 34.1324 3.2 33.4124 3.2 32.5324V24.5324H28.8V32.5324C28.8 33.4124 28.08 34.1324 27.2 34.1324ZM28.8 18.1324H3.2V16.5324C3.2 15.6524 3.92 14.9324 4.8 14.9324H27.2C28.08 14.9324 28.8 15.6524 28.8 16.5324V18.1324Z" fill="#6F6AF8"/>
<rect x="19.1992" y="8.5332" width="6.4" height="7.46667" fill="white"/>
<path d="M16.0008 6.4L22.4008 -2.79753e-07L28.8008 6.4L27.6808 7.54L23.2008 3.06L23.2008 12.8L21.6008 12.8L21.6008 3.06L17.1208 7.54L16.0008 6.4Z" fill="#6F6AF8"/>
</svg>
